<?xml version="1.0" standalone="no"?>
<!DOCTYPE svg PUBLIC "-//W3C//DTD SVG 20010904//EN"
 "http://www.w3.org/TR/2001/REC-SVG-20010904/DTD/svg10.dtd">
<svg version="1.0" xmlns="http://www.w3.org/2000/svg"
 width="1200.000000pt" height="572.000000pt" viewBox="0 0 1200.000000 572.000000"
 preserveAspectRatio="xMidYMid meet">

<g transform="translate(0.000000,572.000000) scale(0.100000,-0.100000)"
fill="#000000" stroke="none">
<path d="M6040 4715 c-162 -36 -296 -64 -297 -65 -2 0 -3 -115 -3 -255 0 -200
3 -255 13 -255 7 0 147 29 312 65 165 36 303 65 308 65 4 0 7 115 7 255 l0
255 -22 -1 c-13 0 -156 -29 -318 -64z"/>
<path d="M3448 4421 l-308 -65 0 -1051 c1 -835 3 -1065 14 -1125 43 -238 201
-421 430 -497 74 -25 94 -27 241 -27 171 -1 285 16 378 56 l47 20 0 258 0 258
-40 -14 c-107 -37 -257 -37 -327 -1 -39 21 -79 65 -100 112 -16 37 -18 84 -21
543 l-3 502 246 0 245 0 0 270 0 270 -245 0 -245 0 -2 278 -3 278 -307 -65z"/>
<path d="M2110 3969 c-445 -47 -719 -317 -720 -710 0 -215 89 -377 272 -496
84 -54 161 -89 358 -162 278 -104 340 -149 340 -251 0 -120 -125 -174 -343
-150 -163 18 -370 81 -525 159 -34 17 -64 31 -67 31 -3 0 -5 -135 -5 -299 0
-275 1 -299 18 -306 342 -139 738 -173 1032 -88 331 95 517 314 537 632 11
179 -45 344 -157 465 -107 113 -228 176 -582 300 -167 59 -238 115 -238 189 0
42 26 90 60 110 106 63 450 24 681 -78 46 -20 90 -39 97 -42 10 -4 12 55 10
292 l-3 298 -85 29 c-114 38 -250 65 -395 77 -135 12 -165 12 -285 0z"/>
<path d="M7622 3969 c-118 -15 -255 -73 -350 -148 -28 -23 -53 -41 -55 -41 -3
0 -10 28 -16 63 -7 34 -14 70 -17 80 -5 16 -25 17 -282 15 l-277 -3 -3 -1492
c-1 -821 -1 -1493 0 -1492 2 0 145 30 318 67 l315 67 3 363 c1 199 4 362 7
362 2 0 24 -13 48 -30 68 -45 159 -88 229 -107 95 -26 280 -23 381 5 343 97
563 379 642 822 22 130 31 390 16 517 -36 310 -135 536 -311 714 -143 145
-281 216 -464 239 -89 11 -93 11 -184 -1z m73 -588 c107 -50 185 -156 237
-321 20 -67 23 -94 23 -250 0 -156 -3 -183 -23 -250 -51 -162 -127 -267 -231
-317 -50 -25 -67 -28 -151 -27 -112 1 -182 23 -248 80 l-42 36 0 478 0 478 35
31 c72 63 148 89 260 90 68 1 89 -3 140 -28z"/>
<path d="M9570 3969 c-438 -52 -750 -392 -837 -909 -19 -115 -21 -381 -4 -495
30 -197 102 -388 195 -519 101 -142 264 -264 432 -325 140 -51 238 -66 434
-65 242 0 421 37 619 125 l71 32 0 253 c0 140 -2 254 -5 254 -3 0 -22 -8 -43
-19 -107 -53 -285 -97 -456 -112 -372 -32 -573 84 -620 359 l-5 32 631 0 631
0 -6 233 c-6 250 -21 352 -73 511 -30 91 -91 218 -137 286 -46 68 -155 177
-221 222 -163 112 -392 163 -606 137z m259 -544 c29 -16 66 -44 82 -62 58 -67
99 -175 99 -265 l0 -48 -331 0 -332 0 5 68 c13 160 107 287 248 333 14 5 59 7
100 6 61 -3 86 -9 129 -32z"/>
<path d="M5323 3950 c-77 -16 -149 -58 -207 -121 -31 -33 -56 -64 -56 -70 0
-5 -4 -9 -9 -9 -5 0 -16 41 -26 90 l-17 90 -274 0 -274 0 0 -1120 0 -1120 315
0 315 0 0 764 0 764 50 45 c90 81 190 113 325 104 44 -3 88 -8 98 -12 16 -7
17 11 17 284 l0 291 -27 11 c-38 14 -179 20 -230 9z"/>
<path d="M5740 2815 l0 -1115 320 0 320 0 0 1115 0 1115 -320 0 -320 0 0
-1115z"/>
</g>
</svg>
