<?xml version="1.0" standalone="no"?>
<!DOCTYPE svg PUBLIC "-//W3C//DTD SVG 20010904//EN"
 "http://www.w3.org/TR/2001/REC-SVG-20010904/DTD/svg10.dtd">
<svg version="1.0" xmlns="http://www.w3.org/2000/svg"
 width="600.000000pt" height="315.000000pt" viewBox="0 0 600.000000 315.000000"
 preserveAspectRatio="xMidYMid meet">

<g transform="translate(0.000000,315.000000) scale(0.100000,-0.100000)"
fill="#000000" stroke="none">
<path d="M1885 1919 c-49 -15 -95 -64 -95 -101 0 -30 77 -25 102 7 40 51 115
24 106 -38 -3 -19 -12 -23 -60 -29 -105 -13 -158 -58 -158 -134 0 -58 16 -90
55 -109 46 -21 74 -19 130 10 49 24 49 24 70 5 27 -25 34 -25 69 6 29 25 29
26 12 60 -12 25 -16 63 -16 140 0 73 -5 114 -15 133 -25 50 -122 74 -200 50z
m112 -254 c-6 -55 -30 -85 -69 -85 -38 0 -56 36 -38 79 12 30 45 49 89 50 22
1 23 -2 18 -44z"/>
<path d="M2363 1923 c-12 -2 -33 -17 -47 -34 l-25 -29 -3 28 c-3 25 -6 27 -48
27 l-45 0 -3 -202 -2 -203 50 0 50 0 0 138 c0 108 3 142 16 160 17 24 56 29
72 9 7 -8 13 -72 14 -158 l3 -144 47 -3 46 -3 4 144 c3 158 10 177 59 177 42
0 49 -28 49 -186 l0 -135 48 3 47 3 3 160 c2 136 0 165 -15 195 -32 63 -119
73 -170 20 l-26 -27 -26 27 c-27 29 -60 40 -98 33z"/>
<path d="M2879 1920 c-40 -12 -75 -38 -87 -66 -21 -44 -16 -54 29 -54 32 0 46
6 61 25 25 32 82 35 98 4 18 -33 9 -64 -20 -67 -131 -13 -190 -55 -190 -137 0
-59 16 -91 55 -110 46 -21 74 -19 130 10 49 24 49 24 70 5 27 -25 34 -25 69 6
29 25 29 26 12 60 -12 25 -16 63 -16 139 0 57 -5 115 -12 129 -22 50 -124 79
-199 56z m108 -255 c-6 -55 -30 -85 -69 -85 -38 0 -56 36 -38 79 12 30 45 49
89 50 22 1 23 -2 18 -44z"/>
<path d="M3630 1918 c-77 -22 -119 -93 -120 -203 0 -53 6 -82 24 -122 61 -130
234 -120 293 17 34 82 10 224 -48 277 -20 17 -91 45 -109 42 -3 0 -21 -5 -40
-11z m86 -89 c16 -18 19 -37 19 -114 0 -77 -3 -96 -19 -114 -26 -29 -62 -27
-83 5 -24 38 -25 179 0 217 21 33 56 35 83 6z"/>
<path d="M4063 1916 c-17 -8 -37 -25 -44 -38 l-13 -23 -6 30 c-5 27 -9 30 -48
33 l-42 3 0 -206 0 -206 48 3 47 3 3 140 c3 149 11 175 57 175 41 0 45 -16 45
-172 l0 -148 51 0 50 0 -3 180 c-3 177 -3 180 -28 204 -32 31 -76 39 -117 22z"/>
<path d="M3190 1880 l0 -40 70 0 71 0 -81 -117 c-70 -102 -80 -122 -80 -160 0
-48 0 -48 55 -28 52 19 132 19 185 0 51 -18 60 -14 60 30 0 28 -6 37 -30 50
-16 8 -50 18 -75 22 -25 3 -45 8 -45 10 0 2 32 51 71 107 55 80 70 109 67 132
l-3 29 -132 3 -133 3 0 -41z"/>
</g>
</svg>
