<?xml version="1.0" standalone="no"?>
<!DOCTYPE svg PUBLIC "-//W3C//DTD SVG 20010904//EN"
 "http://www.w3.org/TR/2001/REC-SVG-20010904/DTD/svg10.dtd">
<svg version="1.0" xmlns="http://www.w3.org/2000/svg"
 width="1200.000000pt" height="1200.000000pt" viewBox="0 0 1200.000000 1200.000000"
 preserveAspectRatio="xMidYMid meet">

<g transform="translate(0.000000,1200.000000) scale(0.100000,-0.100000)"
fill="#000000" stroke="none">
<path d="M4119 6838 l-1 -813 -18 108 c-24 140 -53 234 -101 328 -100 192
-266 328 -487 398 -146 46 -219 56 -407 56 -392 -2 -665 -110 -848 -337 -138
-173 -206 -421 -194 -713 15 -339 144 -583 391 -735 309 -192 854 -214 1205
-49 188 88 310 216 369 387 35 100 50 92 -183 92 l-205 0 -30 -59 c-149 -297
-670 -354 -941 -103 -109 100 -175 232 -194 385 l-7 57 827 0 828 0 -6 -362
c-4 -200 -10 -380 -13 -400 l-7 -38 200 0 200 0 7 53 c3 28 6 86 6 127 l0 74
68 -65 c117 -115 239 -182 411 -225 382 -98 792 22 1020 299 247 299 292 759
109 1122 -118 233 -332 396 -615 467 -72 18 -116 22 -243 22 -299 0 -499 -72
-672 -242 l-68 -66 0 522 0 522 -200 0 -200 0 -1 -812z m-825 -214 c225 -60
371 -236 388 -464 l3 -45 -604 -3 -603 -2 7 47 c10 67 52 180 90 238 59 92
160 172 269 212 121 44 323 52 450 17z m2019 1 c111 -23 209 -77 291 -158 40
-40 86 -97 104 -127 129 -230 125 -583 -9 -806 -49 -80 -153 -175 -241 -218
-240 -119 -557 -74 -738 104 -188 186 -251 509 -155 796 70 209 239 364 445
408 86 19 218 19 303 1z"/>
</g>
</svg>
