<?xml version="1.0" standalone="no"?>
<!DOCTYPE svg PUBLIC "-//W3C//DTD SVG 20010904//EN"
 "http://www.w3.org/TR/2001/REC-SVG-20010904/DTD/svg10.dtd">
<svg version="1.0" xmlns="http://www.w3.org/2000/svg"
 width="290.000000pt" height="174.000000pt" viewBox="0 0 290.000000 174.000000"
 preserveAspectRatio="xMidYMid meet">

<g transform="translate(0.000000,174.000000) scale(0.100000,-0.100000)"
fill="#000000" stroke="none">
<path d="M753 1711 c-343 -55 -614 -300 -704 -636 -17 -62 -22 -109 -22 -210
0 -101 5 -148 22 -210 82 -307 308 -533 616 -616 63 -17 108 -22 210 -22 152
0 241 20 370 82 88 42 228 142 264 187 l23 29 -84 3 -83 3 -33 44 -32 44 152
3 153 3 23 42 23 43 -198 0 -199 0 -17 35 c-9 20 -17 40 -17 45 0 6 90 10 235
10 l234 0 11 41 c9 34 13 38 23 26 27 -33 62 -47 118 -47 62 0 89 7 89 22 0 5
-15 6 -33 3 -175 -33 -255 205 -130 385 l17 25 -25 -22 c-14 -13 -28 -23 -31
-23 -4 0 -8 10 -10 23 l-3 22 -262 3 c-159 1 -263 -1 -263 -7 0 -5 -3 -16 -6
-25 -4 -12 0 -16 16 -16 19 0 21 -5 18 -42 -3 -38 -6 -43 -29 -46 -24 -3 -26
-8 -38 -89 -6 -47 -10 -87 -8 -89 2 -2 14 -5 28 -7 21 -4 24 -8 21 -38 -5 -44
-11 -49 -60 -56 -34 -5 -44 -1 -66 20 -14 14 -26 36 -26 48 0 13 12 96 26 186
l27 163 48 0 49 0 11 45 11 45 239 0 238 0 -18 43 -18 42 -201 5 -201 5 22 40
23 40 152 5 153 5 -31 43 -32 42 -86 0 -86 0 43 44 43 44 -63 48 c-79 58 -222
127 -312 149 -80 19 -250 27 -324 16z m-441 -758 l3 -126 44 126 43 127 75 0
c66 0 74 -2 69 -17 -2 -10 -20 -109 -38 -220 l-32 -203 -48 0 c-26 0 -48 3
-48 7 0 4 9 65 21 136 11 71 19 130 17 132 -2 2 -25 -59 -53 -136 l-49 -139
-33 0 -33 0 -1 98 c0 53 -3 115 -7 137 -7 36 -9 28 -25 -75 -27 -171 -22 -160
-73 -160 -24 0 -44 3 -44 8 0 4 16 99 35 212 19 113 35 208 35 213 0 4 31 7
70 7 l69 0 3 -127z m454 32 c42 -28 47 -61 27 -206 l-18 -134 -42 -3 c-32 -2
-43 1 -43 11 0 12 -8 11 -40 -5 -95 -47 -170 40 -126 146 17 40 84 76 142 76
49 0 57 6 43 33 -10 18 -18 19 -81 14 l-70 -6 7 37 c4 20 8 38 10 40 1 1 22 7
46 12 53 10 116 4 145 -15z m280 11 c1 0 -1 -19 -5 -41 l-6 -39 -46 2 c-31 2
-49 -1 -58 -12 -17 -20 -8 -32 39 -56 46 -24 60 -45 60 -95 0 -93 -53 -124
-197 -117 -37 2 -43 5 -43 25 0 59 7 64 78 63 54 -1 67 2 70 16 2 11 -12 26
-44 44 -59 35 -79 77 -64 134 17 62 81 93 170 83 25 -3 46 -6 46 -7z m378 0
c18 -7 43 -26 55 -42 18 -23 21 -38 19 -93 l-3 -66 -95 -5 c-88 -5 -95 -6 -92
-25 7 -42 65 -57 141 -35 l33 9 -6 -42 c-4 -23 -11 -46 -16 -51 -16 -16 -143
-11 -178 8 -38 20 -71 82 -72 134 0 88 50 180 114 208 40 17 59 17 100 0z
m216 -16 l0 -21 22 21 c24 22 63 28 54 8 -2 -7 -10 -32 -17 -55 -8 -32 -17
-43 -30 -43 -25 0 -37 -32 -57 -152 l-16 -98 -48 0 c-26 0 -48 3 -48 7 0 14
51 328 55 341 3 7 21 12 45 12 34 0 40 -3 40 -20z"/>
<path d="M632 793 c-18 -7 -33 -39 -26 -57 7 -19 57 -21 72 -3 6 6 13 24 17
40 7 25 5 27 -21 26 -16 0 -35 -3 -42 -6z"/>
<path d="M1331 901 c-19 -34 -13 -41 35 -41 44 0 45 1 42 28 -2 22 -8 28 -35
30 -23 2 -34 -2 -42 -17z"/>
<path d="M2677 1043 c-11 -10 -8 -71 3 -78 6 -3 10 4 10 17 0 13 3 33 6 46 6
21 -5 30 -19 15z"/>
<path d="M1860 972 c-22 -18 -22 -18 19 -14 22 2 54 -1 71 -6 26 -10 30 -9 30
7 0 35 -82 44 -120 13z"/>
<path d="M2019 958 c-9 -7 -19 -27 -22 -45 l-6 -31 73 5 c49 4 75 2 80 -6 4
-6 16 -11 27 -11 15 0 20 6 17 23 -3 21 -7 22 -75 21 l-72 -2 -3 30 c-3 25 -5
27 -19 16z"/>
<path d="M2300 970 c-1 -3 -12 -75 -25 -160 -13 -85 -27 -165 -31 -177 -6 -22
-4 -23 45 -23 39 0 51 4 51 15 0 10 -11 15 -35 15 -42 0 -42 -5 -14 170 11 71
18 138 16 148 -3 9 -6 15 -7 12z"/>
<path d="M2466 919 c-8 -12 -25 -27 -37 -33 -26 -13 -40 -43 -16 -33 14 5 15
-3 10 -63 -5 -57 -2 -75 16 -112 31 -65 89 -85 152 -53 22 12 29 12 27 3 -4
-18 84 -18 90 0 2 8 -8 12 -32 12 -26 0 -36 4 -36 16 0 14 -2 14 -22 0 -12 -9
-41 -16 -63 -16 -100 0 -145 142 -84 263 21 41 19 49 -5 16z"/>
<path d="M2583 903 c-22 -8 -14 -22 14 -25 35 -4 51 -52 35 -103 -13 -43 -8
-45 13 -5 17 33 20 93 5 121 -10 18 -40 24 -67 12z"/>
<path d="M1994 812 c-29 -23 -60 -83 -35 -67 6 3 7 -16 4 -48 -5 -49 -3 -56
18 -71 27 -18 81 -21 111 -5 14 8 23 8 31 0 17 -17 87 -14 87 4 0 8 -9 15 -19
15 -11 0 -21 7 -23 16 -3 13 -6 13 -23 -3 -32 -29 -102 -23 -131 11 -29 33
-32 100 -8 134 20 29 15 35 -12 14z"/>
<path d="M2104 785 c-18 -14 -18 -14 5 -15 21 0 23 -4 18 -30 -5 -23 -3 -28 9
-23 15 6 44 53 44 73 0 15 -53 12 -76 -5z"/>
</g>
</svg>
