<?xml version="1.0" standalone="no"?>
<!DOCTYPE svg PUBLIC "-//W3C//DTD SVG 20010904//EN"
 "http://www.w3.org/TR/2001/REC-SVG-20010904/DTD/svg10.dtd">
<svg version="1.0" xmlns="http://www.w3.org/2000/svg"
 width="505.000000pt" height="486.000000pt" viewBox="0 0 505.000000 486.000000"
 preserveAspectRatio="xMidYMid meet">
<metadata>
Created by potrace 1.16, written by Peter Selinger 2001-2019
</metadata>
<g transform="translate(0.000000,486.000000) scale(0.100000,-0.100000)"
fill="#000000" stroke="none">
<path d="M848 4845 c-36 -13 -55 -16 -358 -54 -310 -39 -377 -58 -404 -116
-30 -63 -20 -119 44 -245 69 -137 182 -354 230 -440 26 -47 83 -157 127 -245
44 -88 110 -215 147 -283 36 -68 66 -127 66 -131 0 -4 -25 -18 -56 -30 -30
-13 -62 -34 -71 -47 -19 -30 -11 -83 22 -139 20 -36 24 -61 34 -240 6 -110 14
-272 17 -360 6 -181 37 -422 61 -469 9 -17 49 -64 90 -104 l74 -74 -10 -49
c-27 -126 -6 -356 44 -481 15 -37 26 -69 24 -70 -1 -2 17 -33 39 -70 22 -36
44 -84 48 -105 10 -58 63 -150 108 -189 45 -39 125 -79 240 -119 92 -33 225
-118 316 -203 36 -34 94 -81 130 -105 99 -68 201 -132 240 -152 57 -29 233
-137 255 -155 11 -10 71 -52 133 -94 l113 -76 351 0 352 0 130 31 c210 49 491
147 600 208 28 15 96 54 151 86 55 32 147 77 205 101 125 52 160 86 151 146 0
4 13 2 30 -4 18 -6 64 -8 110 -5 86 6 149 30 193 74 68 68 89 299 41 451 -34
109 -95 195 -172 246 -65 43 -190 53 -297 25 -51 -14 -129 -88 -155 -148 l-21
-49 -89 19 c-163 36 -180 45 -262 139 -41 47 -108 126 -149 175 -41 50 -78 92
-82 93 -11 5 -10 104 0 120 7 11 78 42 135 59 25 8 21 45 -13 112 -53 105
-124 155 -247 172 -46 6 -94 22 -149 51 -75 39 -82 45 -112 103 -83 160 -183
236 -318 243 -53 3 -79 0 -103 -13 -18 -9 -35 -15 -37 -13 -5 6 -170 301 -227
408 -28 52 -65 118 -82 145 -46 72 -289 512 -347 628 -11 21 -65 118 -122 215
-57 97 -120 209 -141 247 -21 39 -41 75 -45 80 -5 6 -44 75 -87 155 -222 406
-266 467 -384 528 l-62 32 -206 -1 c-146 0 -217 -4 -243 -14z m-179 -148 c6
-8 14 -31 19 -53 7 -37 11 -40 52 -47 25 -5 71 -15 103 -23 46 -12 100 -14
285 -9 220 7 228 8 247 30 11 12 30 26 42 29 20 6 29 -2 68 -66 50 -79 119
-201 224 -398 37 -69 103 -186 146 -260 106 -181 154 -273 149 -281 -2 -4 -27
0 -54 9 -48 15 -59 15 -198 -6 -81 -12 -183 -27 -227 -33 -44 -6 -129 -19
-190 -30 -60 -11 -155 -26 -210 -34 -181 -27 -240 -44 -290 -82 -25 -20 -47
-34 -49 -32 -4 5 -288 525 -390 716 -74 140 -181 371 -206 447 -11 36 -11 40
12 62 20 21 42 27 138 39 63 8 147 18 185 23 103 14 131 13 144 -1z m1368
-1198 c24 -12 55 -36 69 -55 36 -47 336 -592 343 -623 1 -9 -106 93 -238 225
-417 418 -454 431 -976 355 -154 -23 -286 -44 -292 -46 -7 -2 -13 0 -13 5 0
13 54 25 215 50 77 11 239 37 360 56 382 61 399 63 445 58 24 -2 64 -14 87
-25z m-276 -150 c91 -44 172 -113 400 -345 360 -368 386 -396 364 -405 -20 -8
-242 -53 -505 -103 -74 -14 -252 -48 -395 -76 -143 -27 -267 -50 -275 -50 -20
0 -159 245 -146 257 3 3 25 -14 48 -38 86 -87 128 -123 134 -116 4 4 -29 44
-73 89 -194 199 -236 261 -401 586 -45 90 -55 116 -46 129 8 12 45 24 125 39
294 56 430 72 569 71 122 -2 127 -3 201 -38z m-947 -225 c37 -69 66 -130 64
-135 -2 -6 -49 37 -106 94 -76 78 -102 111 -102 130 0 26 12 33 56 36 17 1 34
-23 88 -125z m-159 49 c10 -15 80 -88 156 -164 121 -121 191 -210 175 -226 -8
-8 -328 306 -354 347 -34 56 -12 97 23 43z m98 -249 c35 -36 119 -113 186
-172 l123 -107 70 -135 c215 -415 231 -442 315 -527 113 -115 121 -73 23 119
-33 65 -60 121 -60 125 0 5 37 14 82 21 96 16 93 18 154 -105 31 -60 36 -81
36 -136 0 -36 -9 -93 -21 -128 -11 -35 -24 -79 -28 -98 -11 -45 -28 -49 -48
-12 -20 41 -168 223 -219 273 -138 132 -314 123 -428 -22 -25 -32 -48 -65 -51
-72 -7 -21 -57 22 -102 88 -24 35 -46 82 -53 114 -6 30 -16 165 -22 300 -6
135 -15 272 -20 305 -18 115 -24 235 -12 235 7 0 40 -30 75 -66z m1917 -520
c28 -47 51 -90 53 -95 1 -5 -41 -25 -93 -43 -52 -19 -102 -37 -111 -41 -9 -3
-21 -20 -26 -38 -8 -30 -14 -33 -83 -49 -113 -27 -211 -49 -250 -56 -27 -6
-36 -13 -41 -37 -13 -51 -39 -238 -39 -273 0 -51 -14 -69 -62 -76 -24 -4 -53
-10 -66 -13 -22 -5 -23 -3 -19 35 3 22 13 55 23 71 14 24 15 34 6 43 -25 25
-72 -45 -86 -128 l-7 -39 -91 -2 -91 -1 6 56 c3 32 20 93 37 136 33 81 34 94
15 197 l-7 35 98 22 c55 12 116 24 137 28 21 4 41 12 44 20 2 7 -14 50 -36 96
-23 46 -41 86 -41 90 0 3 15 8 33 10 17 3 156 32 307 66 332 74 312 69 327 71
7 0 35 -38 63 -85z m-765 -104 c21 -40 19 -59 -7 -65 -13 -3 -63 -13 -111 -23
l-88 -19 -25 32 c-41 54 -44 51 106 85 104 24 107 24 125 -10z m1145 -68 c140
-70 226 -145 285 -251 22 -39 45 -71 51 -71 17 0 114 42 114 49 0 3 -9 21 -21
40 l-20 34 43 -7 c24 -4 74 -21 111 -38 71 -33 106 -71 137 -147 18 -45 15
-47 -188 -115 -297 -98 -511 -117 -735 -67 -144 33 -316 123 -545 284 -113 80
-129 94 -118 104 5 5 281 73 299 73 4 0 7 -30 7 -66 0 -60 3 -69 28 -93 35
-31 121 -60 302 -100 179 -39 220 -45 220 -33 0 22 -79 113 -141 164 -69 56
-229 156 -293 183 -20 9 -34 20 -31 25 7 11 177 67 260 86 33 7 74 11 90 8 17
-2 82 -30 145 -62z m-1869 -279 c51 -27 108 -89 109 -121 0 -20 -45 -35 -83
-28 -52 10 -137 92 -137 132 0 17 3 34 7 37 13 14 51 6 104 -20z m-133 -26 c8
-29 24 -55 50 -79 60 -55 96 -70 160 -66 l56 3 14 -47 c19 -60 12 -78 -31 -78
-19 0 -40 -7 -47 -15 -7 -8 -26 -15 -42 -15 -16 0 -31 -6 -34 -15 -4 -8 -16
-15 -29 -15 -22 0 -49 -23 -57 -50 -3 -10 -13 1 -28 30 -29 58 -56 87 -104
112 l-39 20 6 68 c3 38 15 86 26 108 19 37 63 82 81 82 4 0 13 -19 18 -43z
m1199 -201 c18 -9 51 -29 75 -45 138 -91 366 -192 533 -236 84 -22 261 -30
354 -16 188 30 242 44 341 89 l54 25 64 -69 c101 -109 212 -241 212 -252 0
-11 -108 -67 -157 -82 -15 -4 -60 -20 -99 -34 -68 -24 -76 -25 -191 -16 -127
10 -245 31 -328 58 -47 16 -52 22 -102 107 -28 50 -52 93 -53 96 0 3 41 9 92
13 50 4 101 12 112 19 17 10 -1 13 -109 18 -170 8 -326 45 -407 96 -36 22 -78
31 -78 16 1 -12 128 -89 201 -123 81 -37 117 -61 137 -93 10 -14 28 -39 41
-57 l23 -31 -53 7 c-64 7 -351 77 -474 115 -56 17 -160 89 -235 163 l-75 74 6
118 c4 66 7 121 8 124 0 2 18 -12 39 -32 20 -20 51 -43 69 -52z m-1249 -105
c47 -48 57 -81 36 -127 -10 -22 -20 -50 -24 -64 -8 -38 -36 -37 -49 2 -14 44
-31 154 -31 201 0 34 2 37 19 27 11 -5 32 -23 49 -39z m375 -42 c-5 -3 -24
-12 -44 -18 -20 -7 -58 -27 -85 -46 -26 -19 -49 -33 -50 -32 0 1 -4 24 -7 50
-6 46 -5 49 21 58 15 5 54 22 87 38 l60 28 13 -35 c7 -20 9 -39 5 -43z m3135
-363 c51 -32 83 -64 111 -110 27 -43 60 -170 61 -231 0 -59 -28 -156 -53 -183
l-21 -23 -18 23 c-10 13 -15 29 -13 37 8 20 -22 60 -51 71 -32 12 -40 36 -21
58 15 17 22 46 19 90 -3 33 -58 64 -103 58 -36 -6 -37 -5 -43 33 -3 22 -17 53
-31 69 -14 17 -25 35 -25 41 0 6 16 29 36 51 31 34 43 40 75 40 24 0 54 -9 77
-24z m-497 -46 c151 -32 292 -76 306 -97 18 -24 14 -139 -4 -136 -14 3 -142
-45 -157 -58 -16 -14 -58 -10 -124 12 -34 11 -62 22 -62 25 0 2 28 12 63 23
80 25 218 80 235 93 8 7 9 15 4 20 -6 6 -34 0 -73 -15 -94 -37 -248 -87 -268
-87 -9 0 -21 4 -27 9 -5 5 -63 23 -129 41 -154 39 -155 40 -155 49 0 4 17 13
38 19 20 7 84 37 142 66 58 30 108 55 111 55 3 1 48 -8 100 -19z"/>
</g>
</svg>
