<?xml version="1.0" standalone="no"?>
<!DOCTYPE svg PUBLIC "-//W3C//DTD SVG 20010904//EN"
 "http://www.w3.org/TR/2001/REC-SVG-20010904/DTD/svg10.dtd">
<svg version="1.0" xmlns="http://www.w3.org/2000/svg"
 width="640.000000pt" height="351.000000pt" viewBox="0 0 640.000000 351.000000"
 preserveAspectRatio="xMidYMid meet">

<g transform="translate(0.000000,351.000000) scale(0.100000,-0.100000)"
fill="#000000" stroke="none">
<path d="M576 2447 c-14 -10 -48 -144 -142 -548 -68 -294 -123 -550 -122 -569
l3 -35 122 -3 c118 -3 123 -2 137 20 8 13 31 88 51 168 20 80 43 155 50 166
13 20 24 22 182 27 181 5 243 17 348 66 124 58 210 174 236 316 38 206 -52
354 -239 394 -79 17 -603 15 -626 -2z m439 -208 c24 -6 61 -26 82 -44 38 -33
38 -33 38 -110 l0 -77 -47 -43 c-32 -29 -64 -47 -105 -58 -73 -21 -202 -22
-228 -4 -21 16 -19 41 21 210 19 79 31 111 47 122 26 18 128 20 192 4z"/>
<path d="M3618 2454 c-9 -3 -21 -17 -27 -32 -17 -42 -251 -1058 -251 -1091 0
-17 6 -31 16 -35 30 -12 220 -6 237 7 11 8 32 67 56 162 22 83 44 162 50 178
l11 27 128 0 c291 0 464 65 561 211 55 82 75 153 76 264 0 79 -3 97 -28 148
-33 66 -94 118 -165 141 -35 11 -122 16 -347 19 -165 3 -307 3 -317 1z m439
-219 c115 -34 154 -155 83 -254 -11 -17 -46 -42 -78 -58 -48 -24 -72 -28 -159
-31 -128 -5 -138 1 -129 73 12 101 55 249 77 268 27 22 135 23 206 2z"/>
<path d="M5626 2428 c-26 -40 -246 -1023 -246 -1100 l0 -28 69 0 c37 0 88 -2
112 -5 24 -3 50 -2 57 3 12 8 272 1073 272 1114 0 29 -34 38 -144 38 -98 0
-107 -2 -120 -22z"/>
<path d="M5958 2443 c20 -4 22 -10 22 -69 0 -36 4 -64 10 -64 6 0 10 28 10 64
0 63 1 65 28 69 15 2 0 4 -33 4 -33 0 -50 -2 -37 -4z"/>
<path d="M6070 2396 c0 -30 -3 -61 -6 -70 -3 -9 -2 -16 3 -16 5 0 14 21 19 48
l9 47 16 -44 c8 -25 20 -46 26 -48 5 -2 16 17 23 42 18 63 30 66 30 6 0 -28 5
-51 10 -51 11 0 13 46 4 103 -7 42 -29 49 -38 12 -3 -13 -11 -37 -17 -52 l-11
-28 -20 53 c-26 70 -48 70 -48 -2z"/>
<path d="M1765 2184 c-130 -19 -165 -27 -180 -44 -9 -10 -21 -50 -27 -90 -9
-59 -8 -74 4 -86 12 -13 20 -13 56 0 62 22 202 39 292 34 67 -3 82 -7 105 -28
24 -22 26 -31 22 -73 -2 -27 -10 -54 -16 -60 -8 -8 -71 -14 -179 -18 -92 -4
-189 -12 -216 -18 -168 -40 -266 -152 -266 -305 0 -77 18 -127 59 -166 47 -45
97 -60 198 -60 92 0 137 13 236 70 38 22 71 40 73 40 2 0 4 -20 4 -45 l0 -45
99 0 c130 0 145 6 160 64 40 162 113 531 114 581 2 106 -70 194 -187 231 -50
16 -283 28 -351 18z m218 -538 c-5 -144 -88 -214 -241 -204 -84 5 -115 34
-116 107 -1 39 4 55 24 76 49 53 125 75 250 72 l85 -2 -2 -49z"/>
<path d="M2442 2183 c-39 -16 -38 -25 73 -619 30 -160 55 -300 55 -311 0 -10
-41 -83 -90 -161 -50 -78 -91 -152 -93 -164 -2 -23 0 -23 127 -26 93 -2 132 1
144 10 22 18 108 153 333 523 336 551 431 713 427 732 -3 16 -15 18 -132 18
-127 0 -128 0 -149 -27 -12 -15 -92 -140 -176 -278 -85 -137 -160 -250 -167
-250 -15 0 -18 13 -64 295 -46 278 -37 265 -179 264 -53 0 -102 -3 -109 -6z"/>
<path d="M4765 2179 c-110 -13 -153 -26 -165 -50 -6 -11 -14 -52 -17 -90 -7
-79 2 -94 46 -77 87 33 326 51 386 28 52 -20 67 -126 21 -154 -14 -9 -74 -16
-181 -19 -221 -8 -313 -35 -394 -116 -50 -50 -75 -124 -75 -217 1 -90 29 -144
94 -182 41 -25 54 -27 155 -27 l110 0 99 53 c54 28 103 52 108 52 5 0 8 -19 7
-42 l-4 -43 112 0 c73 0 116 4 124 12 26 26 144 609 135 667 -14 82 -92 162
-190 192 -63 19 -262 26 -371 13z m253 -512 c5 -38 -23 -128 -50 -162 -33 -43
-92 -65 -175 -65 -65 0 -76 3 -103 28 -61 55 -45 154 31 193 58 29 105 38 204
36 l90 -2 3 -28z"/>
</g>
</svg>
